<?xml version="1.0" encoding="utf-8"?>
<!-- Generator: Adobe Illustrator 21.1.0, SVG Export Plug-In . SVG Version: 6.00 Build 0)  -->
<svg version="1.1" id="Capa_1" xmlns="http://www.w3.org/2000/svg" xmlns:xlink="http://www.w3.org/1999/xlink" x="0px" y="0px"
	 viewBox="0 0 20 20" style="enable-background:new 0 0 20 20;" xml:space="preserve">
<style type="text/css">
	.st0{clip-path:url(#path2335_1_);fill:#FFFFFF;}
	.st1{fill:#FFFFFF;}
</style>
<g>
	<g>
		<defs>
			<path id="path2335_3_" marker-end="none" marker-mid="none" marker-start="none" d="M19,10c0,5-4,9-9,9s-9-4-9-8.9c0,0,0,0,0-0.1
				c0-5,4-9,9-9C14.9,1,19,5,19,10C19,9.9,19,10,19,10z"/>
		</defs>
		<clipPath id="path2335_1_">
			<use xlink:href="#path2335_3_"  style="overflow:visible;"/>
		</clipPath>
		<path id="path1086_1_" class="st0" d="M9.3,19C8.7,18.9,8,18.8,8,18.7c0,0,0.1-0.1,0.2-0.1c0.3-0.1,0.3-0.1,0.8,0
			c0.3,0,0.4,0,0.5,0c0-0.1,0.1,0,0.3,0c0.3,0.1,0.5,0.1,0.8,0c0.1,0,0.1,0,0.1,0.1c0,0.1,0,0.1,0.1,0c0.1,0,0.2-0.1,0.4,0l0.2,0
			l-0.2-0.1l-0.2-0.1l0.2-0.1c0.1,0,0.2,0,0.3,0c0.1,0.1,1.1,0,1.4-0.1c0.1-0.1,0.4-0.1,0.5-0.1c0.1,0,0.3-0.1,0.4-0.1
			c0.2-0.1,0.4-0.1,0.4-0.1c0,0.1-0.7,0.4-1.4,0.6C12,19,10.4,19.1,9.3,19z M11.3,17.8c-0.3-0.1-0.4-0.4-0.3-0.5
			c0.1-0.1,0-0.1,0-0.1c-0.1,0-0.1,0,0-0.1c0,0,0.1-0.2,0.1-0.4c0-0.2,0.1-0.5,0.1-0.7c0.1-0.2,0.1-0.4,0.1-0.5
			c0-0.2,0.1-0.7,0.1-1.1c0.1-0.3-0.1-0.6-0.4-0.8c-0.2-0.1-0.3-0.2-0.3-0.3c-0.1-0.4-0.4-0.9-0.6-1.2c-0.2-0.3-0.1-0.9,0.3-1.2
			c0.2-0.2,0.2-0.3,0.2-0.5c0-0.2-0.1-0.3-0.1-0.3c0,0-0.1-0.1-0.1-0.1c0,0,0-0.1-0.1-0.1c-0.1,0-0.1,0-0.1,0.1c0,0.1-0.4,0-0.6-0.1
			C9.6,9.9,9.6,9.9,9.5,9.9c0,0-0.1,0-0.1-0.1c0-0.2-0.3-0.4-0.6-0.5c-0.1,0-0.3-0.1-0.4-0.2C8.3,9,8.1,8.9,7.9,8.9
			c-0.4,0-0.8-0.2-0.7-0.3c0,0-0.1-0.1-0.2-0.1c-0.3,0-0.4-0.1-0.2-0.3c0.1-0.1,0.1-0.1,0.1-0.1c-0.1,0-0.4-0.3-0.6-0.6
			c0,0-0.2-0.2-0.3-0.3L5.8,7l0.1,0.2C5.9,7.4,6,7.5,6.1,7.5c0,0,0,0,0,0.1c0,0.1,0,0.1,0,0.2c0,0,0.1,0.1,0.1,0.2
			c0,0.1,0,0.1-0.2,0C6,7.8,5.9,7.7,5.9,7.6c0-0.1-0.1-0.1-0.1-0.1c-0.1,0-0.1-0.1-0.1-0.2c0-0.1,0-0.2,0-0.2c0,0-0.1-0.1-0.1-0.2
			S5.5,6.7,5.4,6.6C5.1,6.3,5.1,5.8,5.2,5.4c0.2-0.4,0.2-0.7,0.1-0.7c0,0-0.1-0.1,0-0.2c0-0.1,0-0.2,0-0.2c0,0-0.1,0-0.1,0.1
			c0,0.1,0,0.1-0.1,0.1C5,4.5,5,4.5,5,4.4C5,4,5,3.9,4.9,3.9c-0.2,0-0.7,0.3-0.8,0.4C4,4.4,4,4.4,4,4.4c0,0-0.2,0.1-0.4,0.2
			C3.4,4.8,3.2,4.9,3.2,4.9c0,0,0.1-0.1,0.2-0.2c0.1-0.1,0.3-0.2,0.3-0.3c0-0.1,0.1-0.3,0.3-0.4c0.2-0.1,0.2-0.2,0.1-0.2
			C3.8,3.8,3.9,3.6,4.2,3.5c0.1-0.1,0.2-0.2,0.2-0.3C4.5,3,5,2.7,5.3,2.7c0.1,0,0.4,0,0.7-0.1c0.2-0.1,0.6-0.1,0.7-0.1
			c0.2,0,0.3,0,0.3-0.1c0-0.1,0-0.1-0.1-0.1c-0.1,0-0.2,0.1-0.2,0C6.5,2.3,6.7,2.1,6.8,2.1c0.1,0,0.1,0,0.1-0.1
			c0-0.1,0.1-0.1,0.2-0.2c0.2-0.1,0.2-0.1,0.1-0.1c-0.2,0-0.6,0.2-0.8,0.3C6.4,1.9,6.3,2,6.2,2C6.1,2,6,2,6,2c0,0.1-0.5,0.3-0.9,0.4
			C5,2.4,5,2.4,5.2,2.3C6,1.7,6.8,1.4,7.9,1.1C8.4,1,8.8,1,9.9,1c1.3,0,2.4,0.1,2.1,0.3c-0.1,0-0.1,0-0.2,0c0,0-0.4,0-0.8-0.1
			c-0.7,0-0.8,0-0.7,0.1c0,0.1,0.1,0.1,0.1,0.1c0.1,0,0.7,0.3,1.1,0.6c0.2,0.1,0.4,0.3,0.4,0.3c0,0,0.1,0.1,0.2,0.2
			c0.1,0.1,0.1,0.2,0,0.2c-0.2,0.1-0.2,0.4-0.1,0.7C12,3.4,12,3.5,12,3.6c-0.1,0.1-0.5-0.2-0.8-0.5c-0.2-0.2-0.3-0.3-0.4-0.2
			c0,0-0.1,0,0,0c0,0,0-0.1-0.1-0.2c-0.1-0.1-0.1-0.1-0.1-0.2c0-0.1,0-0.1-0.1-0.1c-0.1,0-0.1-0.1-0.2-0.1c0-0.1-0.1-0.1-0.1-0.1
			c0,0-0.1,0-0.2-0.1C10,1.9,9.9,1.9,9.8,2C9.6,2,9.6,2,9.6,2c0.2,0,0.7,0.6,0.7,0.7c0,0.1,0,0.2,0,0.2c0,0,0,0.1,0,0.2
			c-0.1,0.1-0.1,0.1-0.4-0.1C9.8,3,9.6,2.9,9.5,2.9c-0.2,0-0.2-0.1-0.1-0.2c0.1,0,0.1-0.1,0.2-0.2c0-0.1,0-0.1-0.1-0.1
			c-0.1,0-0.1,0-0.2-0.1c0-0.1,0-0.1,0-0.1c0,0-0.1,0-0.1,0C9,2.3,9,2.4,9,2.5c0,0.2,0,0.3,0.1,0.3C9.2,2.9,9.3,3,9.2,3
			c0,0,0.1,0,0.2,0c0.1,0,0.3,0,0.5,0.2c0.3,0.2,0.3,0.2,0.4,0.1c0-0.2,0.1-0.1,0.4,0.2c0.2,0.2,0.3,0.3,0.4,0.3
			c0.1,0,0.3,0.2,0.5,0.4c0.1,0.2,0.3,0.3,0.2,0.1c0-0.1,0,0,0.1,0.1c0.1,0.1,0.2,0.2,0.2,0.3c0,0.1,0,0.1-0.1,0
			c-0.1-0.1-0.1-0.1-0.1,0c0,0.1,0,0.1,0,0c-0.1-0.2-0.4-0.1-0.4,0c0,0.1-0.1,0.1-0.2,0.2c-0.1,0-0.2,0.1-0.2,0.1c0,0-0.1,0.1-0.3,0
			c-0.2,0-0.3,0-0.3,0.1c0,0.1-0.1,0.2-0.1,0.3c-0.1,0.1-0.1,0.2-0.1,0.3c0,0.1,0,0.1-0.1,0c-0.1-0.1-0.1-0.1,0,0.1
			c0.1,0.2,0.1,0.3-0.2,0.6C9.7,6.6,9.7,7,9.8,7c0.1,0.1,0.2,0.4,0.2,0.5C9.9,7.6,9.7,7.5,9.6,7.2C9.5,7,9.5,6.9,9.3,6.9
			C8.9,6.8,8.8,6.9,8.8,7C8.8,7,8.7,7.1,8.6,7C8.4,7,8,7.3,7.8,7.5c-0.1,0.2-0.1,0.5,0,0.8C8,8.5,8.1,8.6,8.4,8.5
			c0.2,0,0.2-0.1,0.3-0.2c0-0.1,0.1-0.2,0.1-0.2c0,0,0.1,0,0.2,0c0.2,0,0.2,0.1,0.1,0.3C9,8.6,9,8.7,9,8.7c0,0,0,0.1,0,0.1
			C8.9,9,8.9,9,9.2,8.9c0.5-0.1,0.6,0,0.6,0.3c0,0.5,0.2,0.8,0.5,0.6c0.1-0.1,0.2-0.1,0.3,0c0.2,0.1,0.2,0.1,0.4-0.1
			c0.1-0.1,0.2-0.2,0.3-0.2c0.1,0,0.2-0.1,0.3-0.1c0.1,0,0.1,0,0.1,0c0,0,0,0.1,0,0.1c0,0,0.1,0,0.1-0.1c0,0,0.1,0,0.2,0
			c0.1,0.1,0.2,0.1,0.3,0.1c0,0,0.1,0,0,0c0,0,0,0.1,0.1,0.1c0.2,0.1,0.3,0.1,0.2,0c0,0,0-0.1,0-0.1c0.1,0,0.1,0,0,0
			c0,0.1,0.1,0.1,0.3,0.1c0.1,0,0.1,0.1,0.1,0.1c0,0.2,0.5,0.6,0.8,0.6c0.3,0.1,0.5,0.3,0.6,0.4c0,0.1,0,0.2,0.1,0.2
			c0.1,0,0,0.1-0.1,0.2c-0.1,0.1-0.1,0.1,0,0.1c0.1-0.1,0.2,0,0.6,0.2c0.3,0.1,0.5,0.3,0.6,0.3c0.1,0,0.2,0.1,0.3,0.1
			c0.1,0.1,0.2,0.1,0.2,0.1c0.1,0,0.1,0,0.1,0.2c0,0.2-0.1,0.3-0.3,0.6c-0.2,0.2-0.4,0.5-0.4,0.6c-0.1,0.4-0.4,0.8-0.7,0.9
			c-0.1,0-0.2,0.1-0.2,0.2c0,0.1-0.1,0.2-0.2,0.2c-0.1,0.1-0.3,0.2-0.3,0.3c-0.4,0.5-0.8,0.8-0.9,0.7c-0.1,0-0.2,0-0.2,0.1
			c0,0.1-0.1,0.4-0.3,0.4c0,0-0.3,0.2-0.5,0.4c-0.3,0.2-0.4,0.4-0.3,0.4c0.1,0,0,0.1-0.1,0.2c-0.2,0.1-0.2,0.2-0.1,0.3
			c0.1,0.1,0.1,0.1,0.1,0.1C11.8,17.9,11.5,17.9,11.3,17.8z M11,4.8c-0.1,0-0.1,0-0.1,0C10.8,4.9,10.8,4.9,11,4.8
			C11,4.9,11,4.9,11,4.8z M11.5,4.5c0,0,0,0-0.1,0c-0.1,0-0.1,0-0.1-0.1c0-0.1,0-0.1-0.1,0c0,0.1,0,0.2,0,0.3l0.1,0.2l0.1-0.2
			C11.4,4.6,11.5,4.5,11.5,4.5z M9.1,4.7c0,0-0.1-0.1-0.2-0.1c-0.2-0.1-0.2-0.1-0.3,0C8.4,4.7,8.4,4.7,8.7,4.7
			C8.9,4.7,9.1,4.7,9.1,4.7z M8.9,4.3c-0.1-0.1-0.1-0.1,0-0.2c0.1,0,0.3,0,0.4,0c0.2,0.1,0.3,0.1,0.2,0c0-0.1,0-0.1,0-0.1
			c0,0,0.1,0,0.2,0C9.9,4,9.9,4,9.8,4C9.6,4,9.6,4,9.6,3.8c0-0.1-0.1-0.2-0.1-0.3C9.4,3.4,9.3,3.4,9.3,3.4c0.1-0.1,0-0.2-0.1-0.2
			c-0.1,0-0.1,0-0.1-0.1c0,0,0-0.1-0.1,0C9,3.1,8.9,3,8.8,3C8.7,3,8.6,3,8.5,3.2C8.4,3.3,8.3,3.4,8.2,3.4c0,0-0.1,0-0.1,0.1
			c0,0.1,0,0.1,0,0.1c0,0,0.1,0.1,0.3,0.2c0.1,0.1,0.3,0.2,0.3,0.2c0.2-0.1,0.4,0,0.4,0.1c0,0-0.1,0.1-0.2,0.1C8.9,4.1,8.8,4,8.9,4
			c0-0.1,0-0.1,0,0c0,0-0.1,0.1,0,0.1c0,0,0,0.1,0,0.1c0,0-0.1,0-0.1-0.1c0-0.1-0.3-0.1-0.3,0.1c0,0.2,0.1,0.4,0.2,0.2
			c0-0.1,0.1-0.1,0.1,0C8.8,4.4,8.8,4.4,8.9,4.3c0,0,0,0.1,0,0.1c0,0.1,0,0.1,0.1,0C9,4.5,9,4.4,8.9,4.3z M9.4,3.9
			c0,0,0-0.1,0.1-0.1c0,0,0.1,0,0,0.1C9.5,4,9.4,4,9.4,3.9z M8.5,3.7C8.4,3.7,8.4,3.6,8.4,3.6c0.1,0,0.3,0.1,0.3,0.2
			C8.8,3.9,8.7,3.9,8.5,3.7z M11,4.5c0,0-0.1-0.1-0.1-0.1c-0.1-0.1-0.2,0-0.2,0c-0.1,0.1,0,0.1,0.1,0.1C10.9,4.5,11,4.5,11,4.5z
			 M9.9,4.3c0,0-0.1-0.1-0.1-0.1c-0.1,0-0.1,0-0.1,0.1C9.7,4.3,9.8,4.4,9.9,4.3C9.9,4.4,9.9,4.3,9.9,4.3z M10.1,4.3
			C10.1,4.3,10.1,4.2,10.1,4.3c-0.1-0.1-0.1,0-0.1,0C10,4.3,10.1,4.4,10.1,4.3C10.2,4.4,10.2,4.3,10.1,4.3z M7.7,3.9
			C7.6,3.9,7.6,3.8,7.8,3.7C7.9,3.6,8,3.4,8,3.4c0-0.1,0,0-0.1,0.1C7.8,3.5,7.8,3.6,7.7,3.5c0,0,0-0.1,0-0.1c0,0,0.1-0.1,0.1-0.1
			c0-0.1-0.1-0.1-0.2,0c0,0.1-0.1,0.1-0.1,0.1c0,0,0-0.1,0-0.1c0,0,0-0.1,0-0.1c0,0-0.1,0-0.1,0.1c0,0-0.1,0.1-0.1,0
			c-0.1,0,0-0.1,0-0.1c0.1-0.1,0.1-0.1,0-0.1c-0.1,0-0.5,0.2-0.4,0.2c0.1,0,0.1,0,0.1,0.1c0,0,0,0.1,0.1,0l0.2,0L7,3.6L6.9,3.7
			l0.2,0.1c0.2,0.1,0.2,0.1,0.2,0c0-0.1,0.1-0.1,0.1,0c0.1,0.1,0.1,0.1,0,0.2C7.4,4,7.4,4,7.6,4C7.8,4,7.8,4,7.7,3.9z M7.4,3.7
			c-0.1-0.1,0-0.1,0.1,0c0.1,0,0.1,0.1,0,0.1C7.5,3.7,7.5,3.7,7.4,3.7z M10.4,3.6c0,0-0.2,0.1-0.2,0.1c0,0,0,0,0.1,0
			C10.3,3.7,10.4,3.6,10.4,3.6z M8.2,3.7c0,0-0.1,0-0.1-0.1C8,3.6,8,3.7,8,3.7C8.1,3.8,8.2,3.8,8.2,3.7z M7.1,3
			c0.1-0.1,0-0.1-0.1-0.1C6.8,2.9,6.7,3,6.6,3.1c-0.1,0.1-0.1,0.1,0,0C6.8,2.9,6.9,3,6.8,3.2c0,0.1,0,0,0.1,0C6.9,3.1,7,3,7.1,3z
			 M7.7,3.1C7.7,3.1,7.7,3,7.7,3.1c-0.1,0-0.2,0-0.2,0C7.5,3.2,7.6,3.2,7.7,3.1C7.7,3.2,7.7,3.1,7.7,3.1z M7.3,2.5
			c-0.1,0-0.2,0-0.2,0S7.1,2.6,7.3,2.5C7.3,2.6,7.4,2.5,7.3,2.5z M7.9,2.4c0,0-0.1,0-0.1,0.1C7.7,2.6,7.7,2.6,7.9,2.4
			C7.9,2.5,7.9,2.5,7.9,2.4z M8.8,2.3C8.8,2.3,8.7,2.3,8.8,2.3c-0.1-0.1-0.1,0-0.1,0c0,0.1,0,0.1,0.1,0.1C8.7,2.4,8.8,2.4,8.8,2.3z
			 M8.4,2.2c0-0.1-0.1-0.2,0-0.2c0-0.1,0-0.1-0.1,0c-0.1,0.1-0.1,0.1,0,0.2C8.5,2.4,8.6,2.4,8.4,2.2z M8.1,2.2c0,0-0.1,0-0.3-0.1
			c-0.2,0-0.2,0-0.1,0C7.8,2.3,8.1,2.3,8.1,2.2z M7.4,2C7.5,2,7.5,2,7.4,2C7.3,2,7.2,2,7.1,2C7,1.9,7,1.9,7.1,2
			C7.2,2.1,7.2,2.2,7.4,2z M7.8,1.9c0-0.1,0-0.1-0.1-0.1c-0.1,0-0.1,0.1,0,0.1C7.8,2.1,7.8,2.1,7.8,1.9z M9.8,1.9
			c0.3,0,0-0.2-0.3-0.2C9.2,1.7,9.1,1.6,9,1.6C8.9,1.4,8.8,1.4,8.8,1.7c0,0.2,0,0.2,0.1,0.2c0.1,0,0.2,0,0.3,0.1C9.4,2,9.5,2,9.5,2
			C9.6,1.9,9.7,1.9,9.8,1.9z M8.1,1.9C8.1,1.9,8,1.8,8.1,1.9c-0.1-0.1-0.1,0-0.1,0C8,1.9,8,2,8.1,1.9C8.1,2,8.1,1.9,8.1,1.9z
			 M10.1,1.2c-0.1,0-0.1,0-0.1,0C9.9,1.2,10,1.2,10.1,1.2C10.2,1.2,10.2,1.2,10.1,1.2z M12.1,17.6c-0.1-0.1,0-0.2,0.2-0.2
			c0.1,0,0.1,0,0.1,0.1C12.3,17.7,12.2,17.7,12.1,17.6z M4.1,15.8c-0.2-0.2-0.4-0.4-0.4-0.4c0,0-0.1-0.1-0.2-0.2
			C3.3,15,3,14.8,2.8,14.8c-0.1,0-0.1,0-0.1,0.1c0,0,0,0-0.2,0c-0.2-0.1-0.3-0.2-0.5-0.6c-0.4-0.8-0.4-0.8-0.2-0.9
			c0.1,0,0.1-0.1,0.1-0.2c0-0.1,0-0.1,0-0.1c0,0,0.1-0.1,0.1-0.1c0-0.1,0.1-0.1,0.2-0.1c0.1,0,0.2,0,0.2-0.1c0-0.1,0-0.2,0.1-0.2
			c0,0,0.1,0,0.1,0c0,0,0.1,0.1,0.2,0.1c0.1,0,0.2,0.1,0.2,0.1c0,0.1,0.1,0.1,0.2,0.2c0.1,0.1,0.2,0.1,0.2,0.1c0,0,0-0.1,0-0.2
			c0-0.3,0.1-0.4,0.2,0c0,0.1,0.1,0.2,0.1,0.2c0,0,0.1,0.1,0.2,0.3c0.1,0.2,0.2,0.4,0.3,0.4c0.2,0.2,0.3,0.4,0.3,0.4
			c0,0,0.1,0.1,0.1,0.2c0.2,0.2,0.2,0.7,0.1,0.9c-0.1,0.1-0.1,0.2-0.1,0.3c0,0.1-0.1,0.2-0.2,0.2c-0.2,0-0.2,0,0,0.2
			c0.2,0.1,0.2,0.3,0.1,0.2C4.5,16.3,4.3,16.1,4.1,15.8z M4.7,14.6C4.6,14.6,4.6,14.5,4.7,14.6C4.6,14.6,4.6,14.6,4.7,14.6
			C4.7,14.8,4.7,14.8,4.7,14.6z M5.4,16.1c0-0.1,0.5-0.4,0.7-0.4c0.1,0,0.1,0,0-0.1c-0.1-0.1-0.1-0.1,0-0.1c0.1,0,0.1-0.1,0.1-0.2
			c0-0.1,0-0.2,0-0.2c0,0,0.1,0,0.1,0.1c0,0,0.1,0.1,0.2,0.2l0.2,0.2l-0.2,0.1c-0.1,0.1-0.2,0.1-0.2,0.1c0,0-0.1,0.1-0.3,0.2
			C5.6,16.2,5.4,16.2,5.4,16.1z M6.1,14.3c0,0-0.1-0.1-0.1-0.2c0-0.1,0.1-0.1,0.2,0.1C6.3,14.4,6.2,14.4,6.1,14.3z M17.9,14.2
			c0-0.1,0.1-0.5,0.1-1c0-0.5,0.1-0.9,0.2-1c0.1-0.2,0.1-0.3,0-0.6c0-0.2-0.1-0.5,0-0.7c0-0.3,0-0.3-0.1-0.3c-0.1,0-0.2,0-0.2-0.1
			c0-0.1-0.1-0.1-0.3,0c-0.1,0.1-0.2,0.1-0.3,0.1c-0.1,0-0.2,0-0.3,0c-0.2,0.1-0.5-0.1-0.7-0.5c-0.1-0.1-0.1-0.2-0.2-0.2
			c-0.1,0-0.1-0.1-0.1-0.5c0-0.3,0-0.5,0.1-0.5c0,0,0.1-0.1,0-0.2c0-0.1,0-0.4,0.1-0.5c0.1-0.1,0.1-0.3,0.1-0.4c0-0.1,0-0.1,0.1-0.1
			c0.1,0,0.5-0.3,0.5-0.3c0,0,0-0.1,0.1-0.2c0.1-0.1,0.1-0.1,0.1-0.1c0,0,0-0.1,0-0.1c0.1-0.1,0.1-0.1,0,0C17.1,7,17,7,17,7
			c0,0,0-0.1,0-0.1c0-0.1-0.1-0.1-0.2-0.1c-0.1,0-0.1,0-0.1-0.3c0-0.2,0.1-0.4,0-0.5c0-0.3,0.1-0.3,0.3-0.2c0.2,0.1,0.2,0.1,0.2,0
			c0-0.1-0.1-0.3-0.2-0.4c-0.2-0.3-0.2-0.3-0.1-0.3c0.1,0,0.1,0,0-0.1C17,5,17,5,16.9,4.7c0-0.1,0-0.1,0,0c0,0.1-0.1,0.1-0.1,0.1
			c-0.1,0-0.2-0.3-0.1-0.3c0.1,0,0.1-0.1,0.1-0.1c0-0.1,0-0.1,0.1-0.1c0.1,0,0.1,0,0.1-0.1c0-0.1,0-0.1,0-0.1c0,0,0.1,0.1,0,0.2
			c0,0.1,0,0.3,0.1,0.4c0.1,0.2,0.2,0.4,0.1,0.5c0,0.1,0,0.1,0,0c0.1-0.1,0.1-0.2-0.1-0.4c-0.1-0.1-0.2-0.3-0.1-0.3
			c0,0,0.5,0.6,0.5,0.8c0,0.1,0.1,0.2,0.1,0.2c0.1,0,0.9,1.8,0.9,2c0,0.1-0.1,0-0.2-0.1c-0.1-0.1-0.3-0.2-0.3-0.1
			c0,0.1,0.3,0.6,0.3,0.6c0,0,0-0.1,0-0.1c0-0.1,0-0.1,0.1,0c0.1,0,0.1,0.1,0.2,0.2c0,0.1,0,0.2,0.1,0.4c0,0.1,0.1,0.6,0.2,1
			c0.1,0.8,0.1,1.9-0.1,2.9c-0.1,0.3-0.1,0.6-0.1,0.7c0,0.4-0.1,0.8-0.3,0.9c-0.1,0-0.2,0.2-0.3,0.4C17.9,14.4,17.8,14.5,17.9,14.2z
			 M18.4,7C18.3,6.9,18.3,6.9,18.4,7c-0.1,0.1,0,0.2,0.1,0.1C18.5,7.1,18.4,7,18.4,7z M18.2,7c-0.1-0.3-0.3-0.7-0.4-0.7
			c-0.1,0-0.3,0.3-0.3,0.5c0,0.1,0.1,0.1,0.2,0.1C18.1,6.8,18.2,6.8,18.2,7C18.1,7,18.2,7.1,18.2,7C18.2,7.1,18.2,7,18.2,7z
			 M7.6,13.9C7.6,13.8,7.7,13.8,7.6,13.9c0.2,0,0.3,0.1,0.1,0.1C7.7,14,7.6,14,7.6,13.9z M7.9,13.8C7.9,13.7,7.9,13.7,7.9,13.8
			c0.2-0.1,0.2,0,0.1,0C8,13.8,7.9,13.8,7.9,13.8z M6.3,13.6c-0.1-0.2,0-0.2,0.1-0.1c0.1,0.1,0.1,0.2,0,0.2
			C6.4,13.7,6.4,13.7,6.3,13.6z M5.7,12.8c0,0-0.1-0.1-0.1,0c-0.1,0.1-0.1-0.1,0-0.2c0.1-0.1,0.1,0,0.2,0.1
			C5.8,12.8,5.8,12.9,5.7,12.8C5.7,12.9,5.7,12.8,5.7,12.8z M4.2,12.7c-0.1,0-0.2-0.1-0.2-0.2c-0.1-0.1-0.3-0.2-0.3-0.1
			c0,0-0.1,0.1-0.2,0.1c-0.1,0-0.2,0-0.2-0.1c0,0-0.1-0.1-0.2-0.1c-0.1,0-0.2,0-0.2-0.1c0,0,0-0.1,0.1-0.1c0.1,0-0.1-0.3-0.4-0.4
			c-0.2-0.1-0.2-0.2-0.2-0.2c0-0.1,0-0.1-0.1-0.1c-0.1,0-0.1,0-0.1,0.1c0,0.1,0,0.1-0.1,0.1c-0.1,0-0.2,0-0.2-0.1c0,0,0-0.1,0.1-0.1
			c0.1,0,0.2,0,0.2-0.1c0,0,0-0.1,0-0.1c0-0.1,0.1-0.2,0.1-0.1c0,0.1,0,0.1,0.1,0.1c0,0,0.1,0,0.2,0.1c0.1,0.1,0.1,0.1,0,0.1
			c0,0,0,0,0,0.1c0.1,0.1,0.1,0.1,0.2,0c0.1-0.1,0.2-0.1,0.5,0.1c0.2,0.1,0.4,0.2,0.5,0.3c0.1,0.1,0.2,0.1,0.3,0.1
			c0.2,0,0.4-0.2,0.3-0.3c0,0,0,0,0,0c0.2,0,0.2,0.1,0,0.3c-0.1,0.1-0.2,0.1-0.3,0.1c-0.3-0.1-0.3,0.1,0,0.3
			C4.5,12.7,4.5,12.9,4.2,12.7z M5.1,12.5C5.1,12.4,5.1,12.4,5.1,12.5c0.1,0,0.2,0,0.3-0.1c0.1-0.1,0.1,0,0.1,0c0,0,0,0.1,0,0.1
			C5.3,12.6,5.2,12.6,5.1,12.5z M1.7,12.3c0-0.1-0.2-0.2-0.3-0.2c-0.3-0.2-0.4-0.4-0.2-0.5c0.1,0,0.1,0,0.1,0
			c-0.1,0.1,0.2,0.3,0.3,0.3c0,0,0.1,0,0,0c0,0.1,0,0.1,0.1,0.1c0.2,0.1,0.2,0.1,0.1,0.2C1.8,12.4,1.8,12.4,1.7,12.3z M2,12.3
			c0-0.1,0.1-0.1,0.2-0.2c0.1,0,0.1,0,0.1,0.1c0,0.1,0,0.1,0,0.2c0,0,0,0-0.1,0C2,12.4,1.9,12.3,2,12.3z M4.9,12.2
			c-0.1-0.2,0-0.2,0.2,0c0.2,0.1,0.2,0.1,0,0.1C5,12.4,4.9,12.3,4.9,12.2z M2.5,12.2C2.5,12.2,2.5,12.1,2.5,12.2
			c0.1-0.1,0.2-0.1,0.2,0C2.6,12.2,2.6,12.2,2.5,12.2C2.5,12.2,2.5,12.2,2.5,12.2z M2.7,12.1c0-0.1,0-0.1,0-0.1
			C2.8,11.9,2.8,12,2.7,12.1C2.8,12.1,2.8,12.1,2.7,12.1z M1.7,11.8c0,0-0.1-0.2-0.1-0.4c0-0.3,0-0.3-0.1-0.1c0,0.1-0.1,0.2-0.1,0.2
			c0,0-0.1,0-0.1,0c-0.2,0-0.2-0.5,0-0.9c0.1-0.4,0.2-0.4,0.2,0.1c0,0.3,0.1,0.4,0.3,0.3C1.9,11,2,11,2,11.1c0,0.1-0.1,0.1-0.2,0.1
			l-0.2,0l0.2,0.1c0.1,0,0.2,0.1,0.2,0.2c0,0.1,0,0.1-0.1,0c0-0.1-0.1-0.1-0.1,0c0,0,0,0.1,0,0.2c0,0.1,0.1,0.2,0.1,0.2
			c0,0.1,0,0.1,0,0c0-0.1-0.1-0.1-0.1,0C1.8,11.8,1.7,11.8,1.7,11.8z M9.2,11.5c0-0.1,0.2-0.1,0.2,0c0,0.1,0,0.1-0.1,0.1
			C9.2,11.6,9.1,11.6,9.2,11.5z M2.8,11.4C2.8,11.3,2.8,11.3,2.8,11.4C2.9,11.4,2.9,11.4,2.8,11.4C2.9,11.5,2.8,11.5,2.8,11.4z
			 M1,11c-0.1-0.7-0.1-0.7,0-0.8c0,0,0.1,0.2,0.1,0.4c0,0.3,0.1,0.5,0.1,0.6c0,0.1,0,0.2,0,0.2C1.1,11.5,1,11.3,1,11z M2.1,11.4
			c-0.1-0.2-0.1-0.4,0-0.5c0.1-0.1,0.1-0.1,0.1,0.2C2.2,11.3,2.2,11.5,2.1,11.4C2.2,11.5,2.1,11.5,2.1,11.4z M5.5,10.8
			c0-0.1-0.1-0.2-0.2-0.2c-0.2-0.1-0.3-0.2-0.1-0.2c0.1,0,0.4,0.2,0.4,0.3c0.1,0.1,0.1,0.3,0,0.3C5.6,10.9,5.5,10.9,5.5,10.8z
			 M1.8,10.3c-0.1-0.1-0.1-0.2,0-0.2c0,0,0.1-0.1,0.1-0.1c0-0.1,0-0.1,0.1-0.1c0.1,0.1,0.1,0.5,0,0.5C1.9,10.5,1.8,10.4,1.8,10.3z
			 M1.4,10.1c0-0.1,0-0.1,0.1-0.2c0.1-0.1,0.1-0.1,0.1,0.1C1.5,10,1.5,10.1,1.4,10.1C1.4,10.2,1.4,10.1,1.4,10.1z M0.9,9.9
			c0-0.8,0.2-2.5,0.4-2.5c0,0,0.1-0.1,0.1-0.2c0-0.2,0.3-1.1,0.5-1.2C2,5.8,2,5.8,2,5.9C2,6,2,6,2,6c-0.1,0-0.1,0,0,0.1
			c0,0.1,0,0.2-0.1,0.3C1.7,6.5,1.5,6.9,1.5,7.1c0,0.1,0,0.1,0.1,0C1.7,7,1.8,6.8,1.8,6.7c0-0.1,0-0.2,0.1-0.2C2,6.5,1.9,7,1.7,7.3
			C1.6,7.6,1.6,7.6,1.6,7.5c0-0.1-0.1-0.2-0.1-0.2c-0.1,0-0.2,0.9-0.1,1c0.1,0.1,0.1,0.4,0,0.3C1.2,8.6,1.1,8.8,1.1,9.4
			c0,0.7,0,0.8-0.1,0.8C1,10.1,0.9,10,0.9,9.9z M1.6,9.9c0-0.1,0-0.2-0.1-0.1C1.5,9.8,1.4,9.1,1.5,9C1.5,9,1.5,9,1.5,9.2
			c0,0.1,0.1,0.3,0.2,0.4c0.2,0.2,0.2,0.2,0.1,0.3C1.7,10.1,1.6,10.1,1.6,9.9z M10.5,8.6c0.1-0.1,0.1-0.1,0.2,0
			C10.7,8.6,10.7,8.7,10.5,8.6C10.4,8.7,10.4,8.6,10.5,8.6z M10.9,8.6c0,0,0-0.1,0.1,0c0.1,0,0.1,0,0.1-0.1c0-0.1,0.1-0.1,0.1-0.1
			c0.1,0,0.2,0,0.3,0c0.1,0,0.2,0,0.2,0.1c0,0,0,0.1-0.1,0.1c-0.1,0-0.3,0-0.5,0C11.1,8.7,10.9,8.6,10.9,8.6z M12,8.6
			c0.1-0.1,0.1-0.1,0.2,0C12.2,8.6,12.2,8.7,12,8.6C11.9,8.7,11.9,8.6,12,8.6z M10.2,8.2C10.1,8.1,10,8.1,10,8.1c-0.1,0-0.1,0,0,0
			C10,8,9.9,8,9.8,8C9.7,8,9.7,8,9.7,8c0,0,0,0.1-0.1,0.1c-0.2,0-0.2-0.1,0-0.2c0.1-0.1,0.3,0,0.6,0.1c0.5,0.2,0.6,0.3,0.3,0.3
			C10.5,8.3,10.4,8.2,10.2,8.2z M17,7.1C17,7.1,17,7.1,17,7.1c0.1-0.1,0.2-0.1,0.2,0C17.1,7.1,17.1,7.2,17,7.1C17,7.2,17,7.2,17,7.1
			z M17.1,5.8C17.1,5.7,17.1,5.7,17.1,5.8c0.1-0.1,0.2-0.1,0.2,0C17.3,5.8,17.2,5.8,17.1,5.8C17.1,5.8,17.1,5.8,17.1,5.8z M2.2,5.4
			c0-0.1,0-0.1,0.1-0.2c0,0,0.1,0,0.1,0.1C2.4,5.4,2.3,5.5,2.2,5.4C2.2,5.5,2.2,5.5,2.2,5.4z M2.5,5.4C2.5,5.4,2.5,5.4,2.5,5.4
			c0.1-0.1,0.2-0.1,0.2,0C2.7,5.4,2.6,5.4,2.5,5.4C2.5,5.4,2.5,5.4,2.5,5.4z M3,5C3,5,3,4.9,3,5c0.1-0.1,0.2-0.1,0.2,0
			C3.1,5,3.1,5,3,5C3,5.1,3,5,3,5z M3.1,4.3c0,0-0.1-0.1-0.1,0c-0.1,0,0,0,0-0.1C3.1,4.1,3.3,4,3.4,4.1c0,0,0,0.1-0.1,0.1
			C3.2,4.4,3.1,4.4,3.1,4.3z M13,3.2c-0.1,0-0.2-0.1-0.2,0c-0.1,0-0.1,0-0.1,0c0,0,0-0.1,0-0.1c-0.2,0,0-0.1,0.2-0.1
			c0.2,0,0.7,0.2,0.6,0.3C13.4,3.3,13.2,3.3,13,3.2z"/>
	</g>
	<g id="path2335_2_" marker-end="none" marker-mid="none" marker-start="none">
		<path class="st1" d="M10,1c5,0,9,4,9,8.9c0,0,0,0,0,0.1c0,5-4,9-9,9c0,0,0,0,0,0c-5,0-9-4-9-8.9c0,0,0,0,0-0.1C1,5.1,5,1,10,1
			C10,1,10,1,10,1 M10,0L10,0L10,0C7.3,0,4.8,1.1,2.9,3C1,4.8,0,7.4,0,10l0,0.1C0,15.5,4.5,20,10,20c2.7,0,5.2-1.1,7.1-3
			C19,15.2,20,12.6,20,10l0-0.1C20,4.5,15.5,0,10,0L10,0z"/>
	</g>
</g>
</svg>
