<?xml version="1.0" encoding="utf-8"?>
<!-- Generator: Adobe Illustrator 21.1.0, SVG Export Plug-In . SVG Version: 6.00 Build 0)  -->
<svg version="1.1" id="Capa_1" xmlns="http://www.w3.org/2000/svg" xmlns:xlink="http://www.w3.org/1999/xlink" x="0px" y="0px"
	 viewBox="0 0 18 13" style="enable-background:new 0 0 18 13;" xml:space="preserve">
<style type="text/css">
	.st0{fill:#FFFFFF;}
</style>
<g>
	<g>
		<rect x="11.7" y="1.5" class="st0" width="4.5" height="1.1"/>
		<path class="st0" d="M18,7.8c0,0.2,0,0.4,0,0.6h-5.8h0c-0.1,1.3,0.9,2,1.9,2c0.8,0,1.4-0.4,1.8-1.1h1.9c-0.5,1.9-2.1,2.7-3.9,2.7
			c-2.4,0-4.1-1.9-4.1-4.2s1.8-4.2,4.1-4.2S18,5.5,18,7.8z M12.2,7h3.6c-0.1-1-0.9-1.7-1.8-1.7C13.1,5.2,12.3,5.9,12.2,7z"/>
	</g>
	<path class="st0" d="M9.2,8.2c0.1,1.6-0.1,2.6-1.8,3.4C6.8,11.9,6,12,5.3,12H0V1c0,0,5.1,0,5.8,0s2.9,0.4,2.9,2.5
		C8.7,5,7.9,5.7,7.2,6C7.2,6,9.1,6.5,9.2,8.2z M6.8,8.6c0-1.5-1.8-1.5-1.8-1.5H2.4v3h2.6C5.1,10.1,6.8,10.2,6.8,8.6z M6.4,4.2
		c0-1.3-1.5-1.3-1.5-1.3H2.4v2.5h2.5C4.9,5.4,6.4,5.5,6.4,4.2z"/>
</g>
</svg>
