<?xml version="1.0" encoding="utf-8"?>
<!-- Generator: Adobe Illustrator 21.1.0, SVG Export Plug-In . SVG Version: 6.00 Build 0)  -->
<svg version="1.1" id="Capa_1" xmlns="http://www.w3.org/2000/svg" xmlns:xlink="http://www.w3.org/1999/xlink" x="0px" y="0px"
	 viewBox="0 0 6 13" style="enable-background:new 0 0 6 13;" xml:space="preserve">
<style type="text/css">
	.st0{fill:#FFFFFF;}
</style>
<g>
	<path id="Facebook" class="st0" d="M1.3,2.5c0,0.3,0,1.8,0,1.8H0v2.2h1.3V13H4V6.5h1.8c0,0,0.2-1,0.2-2.2c-0.2,0-2,0-2,0S4,3,4,2.8
		c0-0.2,0.3-0.5,0.6-0.5c0.3,0,0.9,0,1.5,0C6,2,6,1,6,0C5.3,0,4.4,0,4,0C1.2,0,1.3,2.2,1.3,2.5z"/>
</g>
</svg>
