<?xml version="1.0" encoding="utf-8"?>
<!-- Generator: Adobe Illustrator 21.1.0, SVG Export Plug-In . SVG Version: 6.00 Build 0)  -->
<svg version="1.1" id="Capa_1" xmlns="http://www.w3.org/2000/svg" xmlns:xlink="http://www.w3.org/1999/xlink" x="0px" y="0px"
	 viewBox="0 0 13 13" style="enable-background:new 0 0 13 13;" xml:space="preserve">
<style type="text/css">
	.st0{fill:#FFFFFF;}
</style>
<g>
	<path class="st0" d="M9.1,0H3.9C1.7,0,0,1.7,0,3.9v5.3C0,11.3,1.7,13,3.9,13h5.3c2.1,0,3.9-1.7,3.9-3.9V3.9C13,1.7,11.3,0,9.1,0z
		 M11.7,9.1c0,1.4-1.1,2.6-2.6,2.6H3.9c-1.4,0-2.6-1.1-2.6-2.6V3.9c0-1.4,1.1-2.6,2.6-2.6h5.3c1.4,0,2.6,1.1,2.6,2.6L11.7,9.1
		L11.7,9.1z"/>
	<path class="st0" d="M6.5,3.1c-1.9,0-3.4,1.5-3.4,3.4s1.5,3.4,3.4,3.4s3.4-1.5,3.4-3.4S8.4,3.1,6.5,3.1z M6.5,8.6
		c-1.1,0-2.1-0.9-2.1-2.1s0.9-2.1,2.1-2.1c1.1,0,2.1,0.9,2.1,2.1C8.6,7.6,7.6,8.6,6.5,8.6z"/>
	<circle class="st0" cx="9.9" cy="3.2" r="0.8"/>
</g>
</svg>
