<?xml version="1.0" encoding="utf-8"?>
<!-- Generator: Adobe Illustrator 21.1.0, SVG Export Plug-In . SVG Version: 6.00 Build 0)  -->
<svg version="1.1" id="Capa_1" xmlns="http://www.w3.org/2000/svg" xmlns:xlink="http://www.w3.org/1999/xlink" x="0px" y="0px"
	 viewBox="0 0 12 13" style="enable-background:new 0 0 12 13;" xml:space="preserve">
<style type="text/css">
	.st0{fill:#FFFFFF;}
</style>
<g>
	<path class="st0" d="M6.7,12V7.9c0-0.2,0-0.4,0.1-0.6C7,6.8,7.4,6.3,8.1,6.3C9.1,6.3,9.4,7,9.4,8v4H12V7.7c0-2.3-1.3-3.3-3-3.3
		c-1.4,0-2,0.7-2.3,1.2V4.6H4.1c0,0.7,0,7.4,0,7.4H6.7z M6.7,5.6L6.7,5.6L6.7,5.6C6.7,5.6,6.7,5.6,6.7,5.6z"/>
	<g>
		<polygon class="st0" points="0.2,12 2.7,12 2.7,12 2.7,4.6 0.2,4.6 		"/>
		<path class="st0" d="M1.4,3.6L1.4,3.6c0.9,0,1.5-0.6,1.5-1.3C2.9,1.6,2.3,1,1.5,1C0.6,1,0,1.6,0,2.3C0,3,0.6,3.6,1.4,3.6z"/>
	</g>
</g>
</svg>
