<?xml version="1.0" encoding="utf-8"?>
<!-- Generator: Adobe Illustrator 21.1.0, SVG Export Plug-In . SVG Version: 6.00 Build 0)  -->
<svg version="1.1" id="Capa_1" xmlns="http://www.w3.org/2000/svg" xmlns:xlink="http://www.w3.org/1999/xlink" x="0px" y="0px"
	 viewBox="0 0 31 9" style="enable-background:new 0 0 31 9;" xml:space="preserve">
<style type="text/css">
	.st0{fill:#191919;}
	.st1{opacity:0.2;clip-path:url(#SVGID_2_);fill:#FFFFFF;}
</style>
<g>
	<rect x="0" y="0" class="st0" width="31" height="9"/>
	<g>
		<defs>
			<rect id="SVGID_1_" x="0" y="0" width="31" height="9"/>
		</defs>
		<clipPath id="SVGID_2_">
			<use xlink:href="#SVGID_1_"  style="overflow:visible;"/>
		</clipPath>
		<path class="st1" d="M19.5,9c-0.1,0-0.3,0-0.4-0.1l-7.6-7.6L4,8.9C3.8,9,3.5,9,3.3,8.9l-4-4L0,4.1l3.6,3.6l7.6-7.6
			c0.2-0.2,0.5-0.2,0.7,0l7.6,7.6L27,0.1c0.2-0.2,0.5-0.2,0.7,0l4,4L31,4.9l-3.6-3.6l-7.6,7.6C19.7,9,19.6,9,19.5,9z"/>
	</g>
</g>
</svg>
