<?xml version="1.0" encoding="utf-8"?>
<!-- Generator: Adobe Illustrator 21.1.0, SVG Export Plug-In . SVG Version: 6.00 Build 0)  -->
<svg version="1.1" id="Capa_1" xmlns="http://www.w3.org/2000/svg" xmlns:xlink="http://www.w3.org/1999/xlink" x="0px" y="0px"
	 viewBox="0 0 183 68" style="enable-background:new 0 0 183 68;" xml:space="preserve">
<style type="text/css">
	.st0{fill:#FFFFFF;}
</style>
<g>
	<g>
		<path class="st0" d="M39.8,33.1c0,5.5-1.6,9.9-4.8,13.2c-3.2,3.3-7.1,4.9-11.6,4.9c-4.6,0-8.2-2.1-10.9-6.2l-0.6,5.4H0v-2.1
			c1.6,0,2.7-0.3,3.4-0.9c0.7-0.6,1-1.6,1-3.1V2.1H0V0h14.3v23.8c2.7-5.3,6.7-7.9,12-7.9c3.8,0,7,1.5,9.6,4.5
			C38.5,23.3,39.8,27.6,39.8,33.1z M22.5,19.6c-2.5,0-4.5,1.4-6,4.3c-1.5,2.8-2.2,6.6-2.2,11.3c0,4.7,0.7,8.2,2.1,10.5
			c1.4,2.3,3.3,3.4,5.6,3.4c4.8,0,7.2-4.9,7.2-14.7C29.2,24.5,27,19.6,22.5,19.6z"/>
		<path class="st0" d="M77.6,48.4c0.8,0,1.3,0.1,1.5,0.3c0.2,0.2,0.3,0.8,0.3,1.7H65.6l-0.4-6.4c-1.1,2.2-2.6,3.9-4.5,5.2
			c-1.9,1.3-4.1,1.9-6.6,1.9C46.7,51.2,43,47,43,38.5V19.1h-4.5v-2h14.4v22.8c0,2.5,0.5,4.3,1.5,5.5c1,1.2,2.3,1.8,3.9,1.8
			c1.6,0,3.1-0.7,4.4-2.2c1.3-1.5,2.1-3.6,2.4-6.3l0.1-19.5h-3.8v-2h13.7v31.3H77.6z"/>
		<path class="st0" d="M93.1,49c2,0,3.5-0.4,4.5-1.3c1-0.9,1.5-2.1,1.5-3.6s-0.6-2.9-1.9-4.1c-1.2-1.2-2.8-2.2-4.5-2.9
			c-1.8-0.7-3.6-1.5-5.4-2.4c-1.8-0.8-3.3-2-4.5-3.4c-1.2-1.4-1.9-3.2-1.9-5.4c0-3.3,1.3-5.7,4-7.4c2.6-1.7,6-2.5,10-2.5
			c4,0,7.2,0.7,9.5,2.2c0-1,0.1-1.7,0.4-2.1c0.3-0.4,0.8-0.6,1.6-0.6v9.7H104c-0.1-4.8-2.7-7.1-7.7-7.1c-1.8,0-3.3,0.4-4.5,1.2
			c-1.2,0.8-1.8,2-1.8,3.5s0.6,2.9,1.9,4c1.2,1.1,2.8,2,4.5,2.7c1.8,0.7,3.6,1.5,5.4,2.4c1.8,0.9,3.3,2.1,4.5,3.7
			c1.2,1.6,1.9,3.5,1.9,5.7c0,3.2-1.2,5.6-3.6,7.4c-2.4,1.8-5.7,2.6-10.1,2.6s-8.1-0.8-11.3-2.4c0,1-0.1,1.6-0.4,1.9
			c-0.3,0.3-0.8,0.5-1.7,0.5V39.4h2.6C83.7,45.8,86.8,49,93.1,49z"/>
		<path class="st0" d="M126.7,48.4c0.8,0,1.3,0.1,1.5,0.4c0.2,0.3,0.3,0.8,0.3,1.6h-21.7v-2c3.9,0,5.9-1.3,5.9-4V2h-5.9V0h15.8v33.3
			l15-14.2H132v-2h13.1c0,0.8-0.1,1.3-0.4,1.6c-0.3,0.3-0.9,0.4-1.7,0.4c-0.9,0-1.7,0.2-2.3,0.5c-0.7,0.4-1.7,1.2-3,2.4l-5.7,5.5
			l12.5,20.9h1.2c0.8,0,1.3,0.1,1.5,0.3c0.2,0.2,0.3,0.8,0.3,1.7l-12.9,0.1l-9.5-16.4l-2.4,2.3v11.9H126.7z"/>
		<path class="st0" d="M175.2,51.2c-4.6,0-7.2-2.4-7.8-7.1c-0.8,2.2-2.2,4-4.1,5.2c-1.9,1.2-4.2,1.9-7,1.9c-2.8,0-5.1-0.8-6.9-2.4
			c-1.8-1.6-2.8-3.9-2.8-7c0-6.8,6.7-10.3,20-10.5v-5c0-2.9-0.3-5-1-6.3c-0.7-1.3-1.8-2-3.2-2c-1.4,0-2.5,0.3-3.1,0.9
			c-0.6,0.6-1,1.4-1.2,2.2c-0.2,0.9-0.5,1.8-0.7,2.6c-0.6,2.2-2.1,3.3-4.5,3.3c-1.2,0-2.3-0.4-3.1-1.1c-0.8-0.7-1.2-1.7-1.2-2.9
			c0-2.1,1.2-3.8,3.6-5.1c2.4-1.3,5.8-1.9,10.1-1.9c4.3,0,7.8,1,10.4,3c2.6,2,3.9,5.2,3.9,9.5v16.2c0,2.6,0.6,3.9,1.7,3.9
			c1.5,0,2.4-1.8,2.7-5.4l2,0.1c-0.2,2.7-0.8,4.8-1.9,6.1C180.1,50.5,178.1,51.2,175.2,51.2z M160.7,47.9c1.2,0,2.3-0.6,3.4-1.8
			c1.1-1.2,1.9-2.9,2.6-5.1v-7.5c-3.7,0.1-6.3,0.8-7.7,1.9c-1.5,1.2-2.2,3.1-2.2,5.6C156.8,45.6,158.1,47.9,160.7,47.9z"/>
	</g>
	<g>
		<g>
			<rect y="60.8" class="st0" width="18.2" height="7"/>
		</g>
		<g>
			<path class="st0" d="M27.6,67.8v-2.9h-3.7v2.9h-1.1v-7h1.1v3.1h3.7v-3.1h1.1v7H27.6z"/>
			<path class="st0" d="M44,60.8v4.1c0,2.1-1.4,3.1-3.1,3c-1.6,0-2.9-1-2.9-3v-4.1h1.1v4.1c0,1.3,0.7,2,1.8,2c1.1,0.1,2-0.7,2-2
				v-4.1H44z"/>
			<path class="st0" d="M56.6,60.8c1.3,0,2.4,0.6,2.4,2c0,0.6-0.3,1.1-1,1.4c0.8,0.3,1.2,1.1,1.2,1.6c0,1.5-1.2,2-2.6,2
				c-1.1,0-2.1,0-3.2,0v-7H56.6z M54.5,63.7h2.1c0.8,0,1.3-0.3,1.3-0.9c0-0.5-0.4-1-1.3-1h-2.1V63.7z M54.5,66.8h2.1
				c0.6,0,1.5-0.2,1.5-1c0-0.8-0.8-1.1-1.5-1.1c-0.7,0-1.4,0-2.1,0V66.8z"/>
			<path class="st0" d="M84.4,66.9c-0.7,0.7-1.7,1-2.7,1c-2.6,0-3.7-1.8-3.7-3.6c0-1.9,1.2-3.7,3.7-3.7c0.9,0,1.9,0.4,2.6,1.1
				l-0.8,0.7c-0.5-0.5-1.2-0.7-1.8-0.7c-1.8,0-2.6,1.3-2.6,2.6c0,1.3,0.8,2.6,2.6,2.6c0.7,0,1.4-0.3,1.9-0.8L84.4,66.9z"/>
			<path class="st0" d="M99.3,67.8h-1.3l-2.1-2.4h-1.5v2.4h-1.1v-7.1c1.1,0,2.2,0,3.3,0c1.6,0,2.5,1.1,2.5,2.3c0,1-0.5,2-1.9,2.2
				l2.1,2.3L99.3,67.8z M94.3,61.8v2.6h2.1c0.9,0,1.3-0.6,1.3-1.3c0-0.6-0.4-1.3-1.3-1.3H94.3z"/>
			<path class="st0" d="M113.3,67.8h-5.2c0-2.3,0-4.7,0-7h5.2v1.1h-4v1.9h3.9v1h-3.9v1.9h4.1V67.8z"/>
			<path class="st0" d="M127.3,66.4h-3.8l-0.7,1.5h-1.2l3.2-7h1.2l3.2,7H128L127.3,66.4z M125.4,62l-1.5,3.4h3L125.4,62z"/>
			<path class="st0" d="M138.8,61.8h-2.3v-1c2,0,3.7,0,5.8,0v1h-2.3v6h-1.1V61.8z"/>
			<path class="st0" d="M151,67.8v-7h1.1v7H151z"/>
			<path class="st0" d="M164.9,67.9h-1.2l-2.9-7.1h1.3l2.2,5.7l2.3-5.7h1.3L164.9,67.9z"/>
			<path class="st0" d="M183,64.4c0,1.9-1.2,3.6-3.6,3.6c-2.4,0-3.6-1.8-3.6-3.6c0-2.1,1.5-3.7,3.6-3.7
				C181.8,60.7,183,62.5,183,64.4z M179.4,67c1.8,0,2.5-1.2,2.5-2.6c0-1.3-0.7-2.6-2.5-2.7c-1.6,0-2.5,1.1-2.5,2.7
				C176.9,65.6,177.7,67,179.4,67z"/>
		</g>
	</g>
</g>
</svg>
